<svg width="215" height="48" viewBox="0 0 215 48" fill="none" xmlns="http://www.w3.org/2000/svg">
<path d="M163.816 13.7629C164.729 13.7552 165.639 13.8556 166.529 14.0621L165.535 19.0988C163.628 18.6683 161.284 18.5779 160.034 20.0911C159.314 20.9263 158.948 22.1683 158.948 23.7848V34.842H153.192V14.9015C153.192 14.7051 153.27 14.5168 153.408 14.3779C153.546 14.2391 153.733 14.1611 153.928 14.1611H158.732V16.0337H159.141C160.074 14.4 161.909 13.7672 163.816 13.7629ZM205.855 13.5605C203.65 13.5476 201.111 14.3849 199.761 16.0316H199.352V14.1589H194.554C194.357 14.1589 194.169 14.2376 194.029 14.3777C193.89 14.5178 193.812 14.7077 193.812 14.9058V34.8398H199.566V22.5471C199.548 21.7824 199.738 21.0272 200.114 20.3623C200.469 19.7509 200.994 19.2571 201.625 18.9417C203.124 18.1453 205.93 18.3326 207.08 19.5143C207.842 20.2203 208.227 21.2362 208.227 22.5471V34.842H214.069V21.5914C214.131 16.7871 210.588 13.483 205.855 13.5627V13.5605ZM63.8718 13.412C57.5332 13.3281 52.8964 18.0161 52.9906 24.3896C52.9561 26.38 53.4277 28.3464 54.3607 30.1022C56.2509 33.572 59.8858 35.3909 63.8718 35.3672C68.7632 35.4382 73.1067 32.6981 74.0272 27.7604L69.4868 26.9919C69.2436 26.9532 68.9946 26.9998 68.7817 27.1241C68.5688 27.2484 68.405 27.4427 68.318 27.6743C68.0611 28.3979 67.6135 29.0378 67.0229 29.5254C65.6207 30.7372 62.6837 30.8427 61.1274 29.7772C59.3999 28.63 58.794 26.5743 58.7876 24.3961C58.7812 22.2178 59.3999 20.16 61.1274 19.0149C62.6794 17.9537 65.6228 18.0463 67.0036 19.2904C67.7946 19.9863 68.3399 20.9213 68.5577 21.9552L74.0272 21.0296C73.1067 16.0961 68.7632 13.3539 63.8718 13.4228V13.412ZM110.01 13.158C109.276 13.158 108.482 13.765 108.242 14.5119L95.3121 48H101.486L114.934 13.158H110.01ZM116.595 34.842C117.329 34.842 118.121 34.235 118.363 33.4881L131.293 0H125.119L118.395 17.421L111.671 34.842H116.595ZM90.6047 18.3089C92.1438 19.0084 92.9359 20.5173 92.9873 22.2199H83.3049C83.4398 18.4143 87.5157 16.97 90.6047 18.3089ZM88.0615 13.412C79.1413 13.3582 75.1767 22.7817 78.8737 30.1431C80.7447 33.6215 84.2404 35.3865 88.2328 35.3672C92.1524 35.3672 95.4897 33.9961 97.7781 30.8578L94.6506 28.5848C94.4421 28.4327 94.191 28.3513 93.9335 28.3523C93.7684 28.3511 93.605 28.3842 93.4532 28.4493C93.3015 28.5145 93.1647 28.6104 93.0515 28.7311C92.5434 29.2851 91.957 29.7609 91.3111 30.1431C89.7869 31.0515 87.3166 31.1871 85.7239 30.3584C84.052 29.5232 83.3692 27.7302 83.3092 25.8382H98.598V24.3853C98.7008 18.0915 94.3894 13.3302 88.0615 13.4077V13.412ZM17.6864 25.6488L13.7625 15.0005H13.3686L9.46827 25.6488H17.6864ZM15.672 7.16341C15.9158 7.16686 16.1531 7.24266 16.3542 7.38129C16.5553 7.51992 16.7112 7.7152 16.8023 7.9426L27.1739 34.8484H20.9659L19.3797 30.5435H7.79425L6.21656 34.8484H0L10.3781 7.92323C10.4647 7.69948 10.6165 7.50725 10.8136 7.37168C11.0107 7.23611 11.2439 7.16352 11.4827 7.16341H15.672ZM39.6884 13.4056C33.3498 13.3216 28.7131 18.0097 28.8073 24.3831C28.7727 26.3736 29.2443 28.3399 30.1773 30.0958C32.0675 33.5656 35.7024 35.3844 39.6884 35.3607C44.5799 35.4317 48.9233 32.6917 49.8438 27.7539L45.3034 26.9855C45.0603 26.9467 44.8113 26.9934 44.5984 27.1177C44.3854 27.242 44.2217 27.4363 44.1346 27.6678C43.8807 28.3902 43.4369 29.03 42.8502 29.5189C41.448 30.7308 38.511 30.8362 36.9547 29.7708C35.2272 28.6235 34.6214 26.5679 34.6171 24.3896C34.6128 22.2113 35.2272 20.1535 36.9547 19.0084C38.5089 17.9473 41.4502 18.0398 42.8309 19.2839C43.6188 19.9834 44.1603 20.9205 44.3744 21.9552L49.8438 21.0296C48.9233 16.0832 44.5799 13.3453 39.6884 13.412V13.4056ZM140.943 18.3089C142.482 19.0084 143.274 20.5173 143.326 22.2199H133.635C133.77 18.4143 137.845 16.97 140.934 18.3089H140.943ZM138.391 13.412C129.471 13.3582 125.506 22.7817 129.203 30.1431C131.074 33.6215 134.572 35.3865 138.563 35.3672C142.482 35.3672 145.82 33.9961 148.108 30.8578L145.068 28.6493C144.841 28.4823 144.566 28.3925 144.285 28.3932C144.101 28.3939 143.919 28.4325 143.751 28.5066C143.583 28.5806 143.432 28.6885 143.306 28.8237C141.975 30.212 140.523 30.918 138.563 30.9202C135.441 30.9482 133.718 28.927 133.639 25.8533H148.928V24.4004C149.031 18.1065 144.719 13.3453 138.391 13.4228V13.412ZM178.726 30.5112C175.141 30.5112 173.419 27.8594 173.471 24.3896C173.442 23.2669 173.646 22.1504 174.07 21.1114C174.896 19.2194 176.669 18.2615 178.726 18.268C180.867 18.268 182.56 19.1849 183.436 21.1092C183.875 22.145 184.088 23.2638 184.059 24.3896C184.11 27.8508 182.312 30.5543 178.707 30.5112H178.726ZM178.707 13.412C172.319 13.3216 167.556 17.9322 167.652 24.3896C167.652 26.5421 168.121 28.4793 169.044 30.1195C172.841 37.1602 184.624 37.1214 188.434 30.1195C189.372 28.4728 189.845 26.5464 189.845 24.3896C189.946 17.9322 185.086 13.3001 178.713 13.412" fill="#5A32A5"/>
</svg>
